# xmcd
#
# Track frame offsets:
# 150
# 53030
# 104875
# 174592
# 237744
#
# Disc length: 3437 seconds
#
# Revision: 0
# Processed by: cddbd v1.5.2PL0 Copyright (c) Steve Scherf et al.
# Submitted via: Audion 3.0.2 (http://www.panic.com/audion/)
#
DISCID=460d6b05
DTITLE=Herbie Hancock Berlin JF 98 (Marsalis) - Herbie Hancock Berlin JF 98 (Marsalis)
DYEAR=1900
DGENRE=
TTITLE0=1
TTITLE1=2
TTITLE2=3
TTITLE3=4
TTITLE4=5
EXTD=
EXTT0=
EXTT1=
EXTT2=
EXTT3=
EXTT4=
PLAYORDER=
